<?xml version="1.0" encoding="UTF-8"?>
<svg width="100px" height="100px" viewBox="0 0 100 100" version="1.1" xmlns="http://www.w3.org/2000/svg" xmlns:xlink="http://www.w3.org/1999/xlink">
    <title>archive-icon</title>
    <defs>
        <linearGradient x1="50%" y1="0%" x2="50%" y2="100%" id="linearGradient-1">
            <stop stop-color="#9A53D6" offset="0%"></stop>
            <stop stop-color="#6129AD" offset="100%"></stop>
        </linearGradient>
    </defs>
    <g id="Page-1" stroke="none" stroke-width="1" fill="none" fill-rule="evenodd">
        <path d="M78.47646,5.00001195 C80.90616,4.99612397 83.23816,5.94142397 84.98036,7.62892397 L92.52336,14.902324 L92.77727,15.499984 C92.99602,16.039084 93.16789,16.593774 93.28508,17.160184 L93.49992,17.160184 L93.49992,83.566184 C93.49992,88.741984 89.30072,92.941184 84.12492,92.941184 L15.375,92.941184 C10.1992,92.941184 6,88.741984 6,83.566184 L6,17.160184 L6.21484,17.160184 C6.33203,16.593784 6.5039,16.039044 6.72265,15.499984 L6.97656,14.902324 L14.51566,7.62892397 C16.26176,5.94143397 18.59376,4.99612397 21.02346,5.00001195 Z M32.33592,23.409984 L12.24992,23.409984 L12.24992,83.565944 C12.24992,85.292544 13.64876,86.690944 15.37536,86.690944 L84.12536,86.690944 C84.95346,86.690944 85.75032,86.362824 86.33626,85.776884 C86.9222,85.190984 87.25032,84.394104 87.25032,83.565984 L87.25032,23.409984 L67.16432,23.409984 C65.89872,23.480284 64.81669,24.339584 64.46122,25.558384 C63.00812,29.624784 59.92992,32.909884 55.96512,34.632584 C51.99992,36.351384 47.49992,36.351384 43.53512,34.632584 C39.57022,32.909984 36.49212,29.624784 35.03902,25.558384 C34.68362,24.339674 33.60152,23.480294 32.33592,23.409984 Z M49.74986,45.285324 C51.47646,45.285324 52.87486,46.683724 52.87486,48.410324 L52.87486,65.867324 L56.91396,61.824324 C58.14056,60.640684 60.08976,60.660284 61.29676,61.863384 C62.49992,63.070384 62.51942,65.019584 61.33582,66.246184 L51.96082,75.621184 C50.73812,76.839984 48.76162,76.839984 47.53892,75.621184 L38.16389,66.246174 C36.98026,65.019574 36.99986,63.070374 38.20296,61.863374 C39.40996,60.660214 41.35916,60.640714 42.58576,61.824314 L46.62486,65.867324 L46.62486,48.410324 C46.62486,46.683724 48.02326,45.285324 49.74986,45.285324 Z M78.47702,11.2572379 L21.03902,11.2572379 C20.22262,11.253374 19.43746,11.565874 18.85152,12.136184 L13.64182,17.159584 L32.33682,17.159584 C36.25082,17.206484 39.70002,19.733884 40.92272,23.448684 C42.25472,27.179184 45.78992,29.671384 49.75082,29.671384 C53.71172,29.671384 57.24692,27.179184 58.57892,23.448684 C59.80152,19.733784 63.25072,17.206454 67.16482,17.159584 L85.85982,17.159584 L80.64892,12.136184 C80.06682,11.573684 79.28952,11.2572379 78.47702,11.2572379 Z" id="Combined-Shape" fill="url(#linearGradient-1)" fill-rule="nonzero"></path>
    </g>
</svg>