<?xml version="1.0" encoding="UTF-8"?>
<svg width="435px" height="119px" viewBox="0 0 435 119" version="1.1" xmlns="http://www.w3.org/2000/svg" xmlns:xlink="http://www.w3.org/1999/xlink">
    <title>caredash-logo-black</title>
    <defs>
        <path d="M37.9,119 C46.4,119 54.6,117.1 61.9,113 L61.9,97.5 C55.7,102.9 47.7,105.4 39.4,105.4 C24.8,105.4 15,94.9 15,80.4 C15,66.4 24.1,55.7 38.4,55.7 C47.2,55.7 55.5,59.2 61.5,65.5 L61.5,48.9 C54.8,44.2 46.8,42 38.6,42 C15.9,42 0,58 0,80.5 C0,102.8 15.4,119 37.9,119 Z M104.3,118 L118.2,118 L118.2,67.6 L104.3,67.6 L104.3,73.4 C100.7,69.2 95.6,66.6 89.6,66.6 C74.8,66.6 64.4,77.8 64.4,93.1 C64.4,108 74.9,119 89.6,119 C95.6,119 100.7,116.5 104.3,112.4 L104.3,118 Z M91.3,79.5 C98.8,79.5 104.3,85.2 104.3,93 C104.3,100.6 98.8,106.1 91.3,106.1 C84,106.1 78.6,100.6 78.6,93 C78.6,85.2 84,79.5 91.3,79.5 Z M184.1,66.6 C198.6,66.6 208.6,77 208.6,91.4 C208.6,93.5 208.5,95.5 208.3,97.6 L173.4,97.6 C175.3,103.6 180.6,107.1 187.8,107.1 C193.6,107.1 199.2,105.5 204.4,102.5 L204.4,114.4 C198.9,117.6 192.9,119 186.6,119 C170.7,119 158.5,109.3 158.5,93.4 C158.5,78 168.7,66.6 184.1,66.6 Z M158.9,66.6 L158.9,82.1 C149.8,80 141.7,85 141.7,95.6 L141.7,118 L127.8,118 L127.8,67.6 L141.7,67.6 L141.7,76.1 C145.8,70 151.6,66.6 158.9,66.6 Z M184.1,78 C178.1,78 174.5,82.2 173.2,87.8 L194.3,87.8 C193.5,82.2 190,78 184.1,78 Z M215.1,118 L243,118 C265.2,118 281.3,102.6 281.3,80.4 C281.3,58.3 264.9,43 242.7,43 L215.1,43 L215.1,118 Z M242.8,56.2 C256.9,56.2 266.4,65.8 266.4,80.4 C266.4,95.2 257,104.9 242.8,104.9 L229.5,104.9 L229.5,56.2 L242.8,56.2 Z M323.7,118 L337.6,118 L337.6,67.6 L323.7,67.6 L323.7,73.4 C320.1,69.2 315,66.6 309,66.6 C294.2,66.6 283.8,77.8 283.8,93.1 C283.8,108 294.3,119 309,119 C315,119 320.1,116.5 323.7,112.4 L323.7,118 Z M310.7,79.5 C318.2,79.5 323.7,85.2 323.7,93 C323.7,100.6 318.2,106.1 310.7,106.1 C303.4,106.1 298,100.6 298,93 C298,85.2 303.4,79.5 310.7,79.5 Z M344.4,100.7 L344.4,114.4 C348.7,117.2 354.8,119 361.4,119 C373.3,119 381.9,112.7 381.9,102.2 C381.9,96.1 378.6,92.3 371.5,89.2 L361.9,85 C359,83.8 358,82.8 358,80.7 C358,78.4 360.2,76.9 363.8,76.9 C368.3,76.9 374.1,79.4 379.1,83.7 L379.1,70.7 C374.8,68 369.1,66.6 363.2,66.6 C351.8,66.6 344.3,72.5 344.3,82 C344.3,89.8 348.7,93.4 355.4,96.3 L364.7,100.3 C367.3,101.5 368.1,102.8 368.1,104.5 C368.1,107 365.7,108.6 361.6,108.6 C356,108.6 349.8,106 344.4,100.7 Z M401.6,92.6 C401.6,85.7 405.7,79.9 412.5,79.9 C418.6,79.9 421.1,83.8 421.1,90.2 L421.1,118 L435,118 L435,86.9 C435,75.5 428,66.6 416.5,66.6 C410.2,66.6 405.2,69.1 401.6,73.1 L401.6,43 L387.7,43 L387.7,118 L401.6,118 L401.6,92.6 Z M339.3,0 C355.915736,0 369.3,12.2574849 369.3,27.2089614 C369.3,42.1604379 355.915736,54.4175142 339.299933,54.4175142 C335.399181,54.4175142 331.670823,53.7399292 328.254433,52.51027 L319.304577,56.9866044 C318.608641,57.3319404 317.78197,57.2691581 317.146177,56.8139364 C316.515669,56.3613334 316.188637,55.5947923 316.295931,54.8229736 L317.541262,45.9354044 C312.423977,41.045701 309.3,34.4505487 309.3,27.2085528 C309.3,12.4065911 322.417918,0.245410966 338.802573,0.00366756022 L339.3,0 Z M339.298,4.186 C325.109292,4.18633975 313.485798,14.4395271 313.485798,27.2089614 C313.485798,33.6186602 316.431622,39.4057603 321.148396,43.5709293 C321.676868,44.0340004 321.935887,44.7325419 321.836429,45.4284111 L320.991407,51.4613761 L327.199645,48.358563 C327.730736,48.0943269 328.348131,48.0655478 328.902817,48.2826938 C332.086737,49.5358612 335.602986,50.2317973 339.297321,50.2317973 C353.487963,50.2317973 365.111457,39.97861 365.111457,27.2091757 C365.111457,14.5674357 353.719271,4.39165939 339.722261,4.18940804 L339.298,4.186 Z M326.157159,19.9905073 C327.02324,18.4134757 332.147458,13.1326144 338.768872,20.7782664 C345.073971,13.1326144 350.51299,18.4134757 351.380584,19.9905073 C352.957654,22.9080914 352.011737,27.3213584 349.806579,29.4496699 L338.770385,40.4858642 L327.734191,29.4496699 C325.526044,27.3213584 324.580128,22.906578 326.157159,19.9905073 Z" id="path-1"></path>
    </defs>
    <g id="Page-1" stroke="none" stroke-width="1" fill="none" fill-rule="evenodd">
        <g id="caredash-logo-black" fill-rule="nonzero">
            <use fill="#FFFFFF" xlink:href="#path-1"></use>
            <use fill="#000000" xlink:href="#path-1"></use>
        </g>
    </g>
</svg>