<?xml version="1.0" encoding="UTF-8"?>
<svg width="200px" height="190.689884px" viewBox="0 0 200 190.689884" version="1.1" xmlns="http://www.w3.org/2000/svg" xmlns:xlink="http://www.w3.org/1999/xlink">
    <title>caredash-icon-purple</title>
    <defs>
        <linearGradient x1="50%" y1="0%" x2="50%" y2="100%" id="linearGradient-1">
            <stop stop-color="#9A53D6" offset="0%"></stop>
            <stop stop-color="#6129AD" offset="100%"></stop>
        </linearGradient>
    </defs>
    <g id="Page-1" stroke="none" stroke-width="1" fill="none" fill-rule="evenodd">
        <path d="M100,0 C155.385787,0 200,40.8582829 200,90.6965379 C200,140.534793 155.385787,181.391714 99.9997779,181.391714 C86.9972709,181.391714 74.5694086,179.133097 63.1814432,175.034233 L33.3485906,189.955348 C31.0288033,191.106468 28.2732327,190.897194 26.1539237,189.379788 C24.052229,187.871111 22.9621232,185.315974 23.3197692,182.743245 L27.4708734,153.118015 C10.4132573,136.819003 0,114.835162 0,90.6951761 C0,41.3553036 43.7263923,0.818036555 98.3419095,0.0122252007 L100,0 Z M99.995,13.954 C52.697639,13.9544658 13.9526598,48.131757 13.9526598,90.6965379 C13.9526598,112.062201 23.772073,131.352534 39.4946538,145.236431 C41.2562276,146.780001 42.1196234,149.108473 41.7880976,151.428037 L38.9713566,171.53792 L59.6654843,161.19521 C61.4357871,160.314423 63.4937695,160.218493 65.3427232,160.942313 C75.955789,165.119537 87.6766196,167.439324 99.9910711,167.439324 C147.29321,167.439324 186.038189,133.262033 186.038189,90.6972523 C186.038189,48.5581192 148.064235,14.6388646 101.407538,13.9646935 L99.995,13.954 Z M98.2295724,69.2608879 C119.246571,43.7753813 137.376632,61.3782524 140.268614,66.6350244 C145.525512,76.3603048 142.372457,91.0711945 135.021931,98.1655665 L98.2346173,134.952881 L61.4473032,98.1655665 C54.0868134,91.0711945 50.9337592,76.3552599 56.1905312,66.6350244 C59.0774676,61.3782524 76.1581929,43.7753813 98.2295724,69.2608879 Z" id="Combined-Shape" fill="url(#linearGradient-1)" fill-rule="nonzero"></path>
    </g>
</svg>