<?xml version="1.0" encoding="UTF-8"?>
<svg width="100px" height="100px" viewBox="0 0 100 100" version="1.1" xmlns="http://www.w3.org/2000/svg" xmlns:xlink="http://www.w3.org/1999/xlink">
    <title>dashboard-icon</title>
    <g id="Page-1" stroke="none" stroke-width="1" fill="none" fill-rule="evenodd">
        <path d="M49.25,4 C61.5149714,4 73.2799143,8.87226571 81.9558857,17.5441143 C90.6272057,26.2169143 95.5,37.9818571 95.5,50.25 C95.5,62.5149714 90.6277343,74.2798086 81.9558857,82.9516571 C73.2788571,91.6272057 61.5149714,96.5 49.25,96.5 C36.9850286,96.5 25.2200857,91.6276286 16.5441143,82.9516571 C7.87279429,74.2788571 3,62.5149714 3,50.25 C3,37.9808 7.87226571,26.2159629 16.5441143,17.5441143 C25.2211429,8.87279429 36.9850286,4 49.25,4 Z M49.25,10.6071429 C38.7356571,10.6071429 28.6517829,14.7815886 21.2188,22.2145714 C13.7820114,29.6526286 9.60714286,39.7356571 9.60714286,50.25 C9.60714286,60.7643429 13.7815886,70.8482171 21.2188,78.2812 C28.6526286,85.7138657 38.7356571,89.8928571 49.25,89.8928571 C59.7643429,89.8928571 69.8482171,85.7141829 77.2812,78.2812 C84.7179886,70.8473714 88.8928571,60.7643429 88.8928571,50.25 C88.8928571,39.7356571 84.7184114,29.6517829 77.2812,22.2145714 C69.8473714,14.7820114 59.7636029,10.6071429 49.25,10.6071429 Z M37.6912,73.3707714 L37.6912,76.6743429 L34.3876286,76.6743429 L34.3876286,73.3707714 L37.6912,73.3707714 Z M44.2983429,73.3707714 L44.2983429,76.6743429 L40.9947714,76.6743429 L40.9947714,73.3707714 L44.2983429,73.3707714 Z M50.9054857,73.3707714 L50.9054857,76.6743429 L47.6019143,76.6743429 L47.6019143,73.3707714 L50.9054857,73.3707714 Z M57.5126286,73.3707714 L57.5126286,76.6743429 L54.2090571,76.6743429 L54.2090571,73.3707714 L57.5126286,73.3707714 Z M64.1197714,73.3707714 L64.1197714,76.6743429 L60.8162,76.6743429 L60.8162,73.3707714 L64.1197714,73.3707714 Z M49.26036,18.8623714 C66.5753029,18.8623714 80.6448171,32.9318857 80.6448171,50.2468286 C80.6448171,54.5749829 79.7693971,58.7085171 78.17956,62.4663429 L75.1320286,61.1778971 C76.552522,57.8205171 77.3371229,54.1287629 77.3371229,50.24704 C77.3371229,34.7207829 64.7835514,22.1672114 49.2572943,22.1672114 C33.7310371,22.1672114 21.1774657,34.7197257 21.1774657,50.24704 C21.1774657,54.1288686 21.9619714,57.8206229 23.38256,61.1778971 L20.3350286,62.4663429 C18.7452126,58.7122171 17.8697714,54.57456 17.8697714,50.2468286 C17.8697714,32.9318857 31.9392857,18.8623714 49.2542286,18.8623714 Z M65.45822,31.7046486 L67.7954571,34.0418857 L53.0977353,48.7409595 C53.2845023,49.2168123 53.3834286,49.7278174 53.3834286,50.25 C53.3834286,51.3443543 52.945708,52.3931457 52.1735286,53.1695114 C51.397184,53.9417226 50.3482657,54.3794114 49.2540171,54.3794114 C48.15554,54.3794114 47.1067486,53.9416909 46.3345057,53.1695114 C45.5581611,52.3931669 45.1246057,51.3442486 45.1246057,50.25 C45.1246057,49.1515229 45.5582034,48.1027314 46.3345057,47.3263657 C47.1067169,46.5541546 48.1556457,46.1205886 49.2540171,46.1205886 C49.7735627,46.1205886 50.282839,46.2183164 50.7575709,46.4036052 L65.45822,31.7046486 Z" id="Combined-Shape" fill="#FFFFFF"></path>
    </g>
</svg>