<?xml version="1.0" encoding="UTF-8"?>
<svg width="100px" height="100px" viewBox="0 0 100 100" version="1.1" xmlns="http://www.w3.org/2000/svg" xmlns:xlink="http://www.w3.org/1999/xlink">
    <title>docs-icon</title>
    <g id="Page-1" stroke="none" stroke-width="1" fill="none" fill-rule="evenodd">
        <path d="M67.937999,6 C73.977599,6 78.875999,10.8989 78.875999,16.938 L78.875999,18.5005 L88.249979,18.50037 C89.906279,18.50037 91.496139,19.16047 92.667979,20.33237 C93.839819,21.50427 94.499979,23.09417 94.499979,24.75037 L94.499979,64.19938 C94.496079,64.98848 94.347639,65.77361 94.054669,66.50798 C94.019509,66.59391 93.972629,66.66813 93.933569,66.75407 C93.687479,67.32048 93.355439,67.84782 92.953099,68.31657 L72.785099,91.36766 C72.210899,92.02394 71.503859,92.54737 70.714799,92.91456 C69.890599,93.29738 68.992159,93.5005 68.081999,93.5005 L13.249999,93.5005 C11.593699,93.5005 10.00384,92.8404 8.832,91.6685 C7.66016,90.4966 7,88.9067 7,87.2505 L7,24.7505 C7,21.2974 9.7969,18.5005 13.249999,18.5005 L57,18.5005 L57,16.938 C57,10.8984 61.898399,6 67.937999,6 Z M72.625999,24.7505 L13.250999,24.7505 L13.250999,87.2505 L66.375999,87.2505 L66.375999,68.5005 C66.375999,65.0474 69.172899,62.2505 72.625999,62.2505 L88.250999,62.2505 L88.250999,24.7505 L78.875999,24.7505 L78.875999,43.5005 C78.875999,48.6763 74.676799,52.8755 69.500999,52.8755 C64.325199,52.8755 60.125999,48.6763 60.125999,43.5005 L60.125999,37.2505 C60.125999,35.5239 61.524399,34.1255 63.250999,34.1255 C64.977599,34.1255 66.375999,35.5239 66.375999,37.2505 L66.375999,43.5005 C66.375999,45.2271 67.774399,46.6255 69.500999,46.6255 C71.227599,46.6255 72.625999,45.2271 72.625999,43.5005 L72.625999,24.7505 Z M84.500999,68.5005 L72.625999,68.5005 L72.625999,82.0555 L84.500999,68.5005 Z M57.000999,68.5005 C58.727599,68.5005 60.125999,69.8989 60.125999,71.6255 C60.125999,73.3521 58.727599,74.7505 57.000999,74.7505 L24.188999,74.7505 C22.462399,74.7505 21.063999,73.3521 21.063999,71.6255 C21.063999,69.8989 22.462399,68.5005 24.188999,68.5005 Z M57.000999,52.8755 C58.727599,52.8755 60.125999,54.2739 60.125999,56.0005 C60.125999,57.7271 58.727599,59.1255 57.000999,59.1255 L24.188999,59.1255 C22.462399,59.1255 21.063999,57.7271 21.063999,56.0005 C21.063999,54.2739 22.462399,52.8755 24.188999,52.8755 Z M47.626999,37.2505 C49.353599,37.2505 50.751999,38.6489 50.751999,40.3755 C50.751999,42.1021 49.353599,43.5005 47.626999,43.5005 L24.188999,43.5005 C22.462399,43.5005 21.063999,42.1021 21.063999,40.3755 C21.063999,38.6489 22.462399,37.2505 24.188999,37.2505 Z M67.938499,12.2505 C65.348699,12.2505 63.250999,14.3482 63.250999,16.938 L63.250999,18.5005 L72.625999,18.5005 L72.625999,16.938 C72.625999,14.3482 70.528299,12.2505 67.938499,12.2505 Z" id="Combined-Shape" fill="#FFFFFF"></path>
    </g>
</svg>