<?xml version="1.0" encoding="UTF-8"?>
<svg width="100px" height="100px" viewBox="0 0 100 100" version="1.1" xmlns="http://www.w3.org/2000/svg" xmlns:xlink="http://www.w3.org/1999/xlink">
    <title>edit-icon</title>
    <defs>
        <linearGradient x1="50%" y1="0%" x2="50%" y2="100%" id="linearGradient-1">
            <stop stop-color="#9A53D6" offset="0%"></stop>
            <stop stop-color="#6129AD" offset="100%"></stop>
        </linearGradient>
    </defs>
    <g id="Page-1" stroke="none" stroke-width="1" fill="none" fill-rule="evenodd">
        <path d="M14.8331977,66.4842568 C17.5300099,68.0826764 20.6445077,70.4406928 24.0945179,73.8907029 C27.4622707,77.3439966 29.9059121,80.4584944 31.5042476,83.1520248 L12.3930932,88.8778781 C10.3737886,89.4699291 8.52218132,87.6149708 9.11088135,85.5956662 Z M59.4560065,20.5988774 C62.3207012,22.1974655 65.688454,24.7232801 69.5660004,28.5152855 C73.3547223,32.3036707 75.8805369,35.7535966 77.4788724,38.5326663 L36.558992,79.4525467 C34.3686056,75.9990846 31.5073628,72.5491586 28.4750381,69.516834 C25.360372,66.3989684 21.9070782,63.6232666 18.5393254,61.4328801 L59.4558381,20.5988774 Z M68.9707501,11.0843022 C71.7498197,8.3052326 76.2949389,8.3052326 79.0740085,11.0843022 L86.9047073,18.915001 C89.6839453,21.694239 89.6839453,26.2394424 86.9904166,29.1039687 L82.0243283,34.070057 C79.8339419,30.6165949 77.0548723,27.2488421 73.9403745,24.1343443 C70.8257083,21.0164788 67.3724146,18.2407769 64.0046618,16.0503905 Z" id="Combined-Shape" fill="url(#linearGradient-1)" fill-rule="nonzero"></path>
    </g>
</svg>