<?xml version="1.0" encoding="UTF-8"?>
<svg width="100px" height="100px" viewBox="0 0 100 100" version="1.1" xmlns="http://www.w3.org/2000/svg" xmlns:xlink="http://www.w3.org/1999/xlink">
    <title>patients-icon</title>
    <g id="Page-1" stroke="none" stroke-width="1" fill="none" fill-rule="evenodd">
        <path d="M58.4614412,2.00380523 C60.0161412,1.92570523 61.3950012,3.05850523 61.6684412,4.60150523 L62.2153112,7.70310523 L74.6213112,5.51560523 C76.3361112,5.21090523 77.9689312,6.35940523 78.2697112,8.07030523 L91.3679012,82.3667352 C91.5163412,83.1910352 91.3288412,84.0386452 90.8483712,84.7222352 C90.3718712,85.4058552 89.6413912,85.8707052 88.8171712,86.0152352 L26.7941712,96.9532372 C26.6105712,96.9844872 26.4308812,97.0001122 26.2472912,97.0001122 C25.6066912,97.0001122 24.9738412,96.8048022 24.4425912,96.4298022 C23.7589712,95.9533022 23.2941212,95.2228222 23.1495912,94.3986022 L10.0475952,20.1016052 C9.9030652,19.2812052 10.0905652,18.4335952 10.5710352,17.7500052 C11.0475312,17.0663852 11.7780112,16.6015352 12.6022312,16.4570052 L25.0042312,14.2695052 L24.4573512,11.1679052 C24.1839512,9.62100523 25.0901512,8.11318523 26.5823512,7.62490523 L41.6993512,2.69130523 C41.9806012,2.60146523 42.2735612,2.55068523 42.5704412,2.53896523 Z M72.6094312,12.2655352 L63.3086312,13.9061352 L63.8555112,17.0077352 C64.0000412,17.8281352 63.8125412,18.6757452 63.3320712,19.3593352 C62.8555712,20.0429552 62.1250912,20.5078052 61.3008712,20.6523352 L30.2888712,26.1211352 C30.1052812,26.1562952 29.9177812,26.1719152 29.7380912,26.1719152 C28.2380912,26.1719152 26.9099212,25.0976152 26.6403912,23.5703152 L26.1599212,20.8515152 L26.0935212,20.4687052 L16.7927112,22.1093052 L28.8007212,90.2033082 L84.6174312,80.3595352 L72.6094312,12.2655352 Z M56.0205112,35.5239052 C59.4736112,34.9145052 62.6299112,35.7583052 65.1377112,37.9653052 C68.2621212,40.7155352 69.5199312,44.8873352 69.3910212,47.8053352 C68.8560212,59.1413352 55.8638012,68.8560852 55.3130212,69.2623352 C54.7661212,69.6646752 54.1059812,69.8756152 53.4419212,69.8756152 C53.1450512,69.8756152 52.8442712,69.8326452 52.5513012,69.7467052 C51.8913012,69.5507052 36.3603012,64.8677052 31.9853012,54.3987052 C30.8603112,51.7036052 30.6181112,47.3520052 32.6142112,43.6997052 C34.2158112,40.7700052 36.8916112,38.8988852 40.3486112,38.2895052 C43.9345112,37.6567052 46.6767112,38.4028052 48.6689112,39.6567052 C50.1103112,37.7973052 52.4307112,36.1567152 56.0205112,35.5239052 Z M60.9852612,42.6919352 C59.9344612,41.7700652 58.6688612,41.4536552 57.1180612,41.7270952 C52.8563512,42.4770952 52.8602512,45.3911952 52.8641612,45.5161952 C52.8953612,47.0669952 51.7898612,48.4107652 50.2625612,48.6802952 C48.7313612,48.9537952 47.2391712,48.0670952 46.7352612,46.5982952 C46.5243612,46.0591952 45.6141612,44.3599952 42.8563612,44.3599952 C42.4305412,44.3599952 41.9617912,44.4029652 41.4422612,44.4928052 C39.8914612,44.7663052 38.8133412,45.4967052 38.1414612,46.7233052 C37.2078712,48.4303052 37.2664612,50.7038052 37.7977112,51.9733052 C40.1697112,57.6487052 48.3958112,61.6135052 52.8177112,63.2073052 C56.4267112,60.1883052 62.8095512,53.6294052 63.0947112,47.5083052 C63.1571612,46.1333352 62.4383612,43.9810352 60.9852612,42.6919352 Z M55.9417112,8.39061523 L43.2267112,8.82030523 L31.1327112,12.7656152 L32.2968212,19.3750152 L57.1058212,15.0000152 L55.9417112,8.39061523 Z" id="Combined-Shape" fill="#FFFFFF"></path>
    </g>
</svg>