<?xml version="1.0" encoding="UTF-8"?>
<svg width="100px" height="100px" viewBox="0 0 100 100" version="1.1" xmlns="http://www.w3.org/2000/svg" xmlns:xlink="http://www.w3.org/1999/xlink">
    <title>settings-icon</title>
    <g id="Page-1" stroke="none" stroke-width="1" fill="none" fill-rule="evenodd">
        <path d="M46.194506,3 C42.0301781,3 38.5958461,6.43864492 38.5958461,10.5986599 L38.5958461,13.4066175 C36.3840722,14.0934728 34.2371032,14.9833911 32.18513,16.0589768 L30.2022747,14.0761215 C27.2560812,11.129928 22.3962609,11.129928 19.4500675,14.0761215 L14.0761204,19.4500686 C11.1299269,22.396262 11.1299269,27.2560823 14.0761204,30.2022758 L16.0589757,32.1851311 C14.9833237,34.2371043 14.0934828,36.3840733 13.4066164,38.5958472 L10.5986588,38.5958472 C6.43433086,38.5958472 3,42.0344921 3,46.1945071 L3,53.801793 C3,57.9661209 6.43864382,61.4004529 10.5986588,61.4004529 L13.4066164,61.4004529 C14.0934717,63.6122268 14.98339,65.7591958 16.0589757,67.811169 L14.0761204,69.7940243 C11.1299269,72.7402178 11.1299269,77.6000381 14.0761204,80.5462315 L19.4500675,85.9201786 C22.3962609,88.8663721 27.2560812,88.8663721 30.2022747,85.9201786 L32.18513,83.9373233 C34.2371032,85.0129753 36.3840722,85.9028162 38.5958461,86.5896826 L38.5958461,89.3976402 C38.5958461,93.5619681 42.034491,96.996299 46.194506,96.996299 L53.8017919,96.996299 C57.9661198,96.996299 61.4004518,93.5576552 61.4004518,89.3976402 L61.4004518,86.5896826 C63.6122257,85.9028273 65.7591947,85.012909 67.8111679,83.9373233 L69.7940232,85.9201786 C72.7402167,88.8663721 77.600037,88.8663721 80.5462304,85.9201786 L85.9201775,80.5462315 C88.866371,77.6000381 88.866371,72.7402178 85.9201775,69.7940243 L83.9373222,67.811169 C85.0129742,65.7591958 85.9028151,63.6122268 86.5896815,61.4004529 L89.3976391,61.4004529 C93.561967,61.4004529 96.996299,57.961808 96.996299,53.801793 L96.996299,46.1945071 C96.996299,42.0301792 93.5576541,38.5958472 89.3976391,38.5958472 L86.6070439,38.5958472 C85.9158646,36.3797603 85.0259573,34.2327914 83.9460587,32.1765052 L85.9202881,30.2022758 C88.8664816,27.2560823 88.8664816,22.396262 85.9202881,19.4500686 L80.546341,14.0761215 C77.6001475,11.129928 72.7403273,11.129928 69.7941338,14.0761215 L67.8199044,16.0503509 C65.7636182,14.9703859 63.6166493,14.080545 61.4005624,13.3893657 L61.4005624,10.5987705 C61.4005624,6.43444255 57.9619174,3 53.8019025,3 L46.194506,3 Z M46.194506,8.52943482 L53.8017919,8.52943482 C54.9983616,8.52943482 55.871017,9.40204598 55.871017,10.5986599 L55.871017,15.4801556 C55.871017,16.7458432 56.7349912,17.8517302 57.9618069,18.1628162 C61.0979917,18.9490354 64.1003642,20.193114 66.8737075,21.8562574 L66.8737075,21.8519334 C67.9623205,22.5042298 69.3576402,22.335759 70.2518604,21.4372258 L73.6991313,17.989955 C74.5458205,17.1432547 75.7856082,17.1432547 76.6322753,17.989955 L82.0062224,23.3639021 C82.8529226,24.2106023 82.8529226,25.450379 82.0062224,26.2970461 L78.5589515,29.7443169 C77.6604184,30.638526 77.4919476,32.0338347 78.1442439,33.1224698 C79.8073873,35.8958131 81.0515102,38.8981857 81.8376852,42.0343705 L81.8333612,42.0343705 C82.1443919,43.2612415 83.2502236,44.1251604 84.5160218,44.1251604 L89.3932045,44.1251604 C90.5897742,44.1251604 91.4624296,44.9977716 91.4624296,46.1943855 L91.4624296,53.8016713 C91.4624296,54.998241 90.5898184,55.8708964 89.3932045,55.8708964 L84.49877,55.8708964 L84.49877,55.8752204 C83.2330823,55.8752204 82.1271954,56.7391946 81.8161094,57.9703233 C81.0342141,61.1021952 79.7901244,64.1045677 78.131294,66.8735981 C77.4833106,67.9622111 77.6517925,69.3532178 78.5503256,70.247438 L82.0062224,73.7033348 C82.8529226,74.5500239 82.8529226,75.7898117 82.0062224,76.6364788 L76.6322753,82.0104259 C75.785575,82.8571261 74.5457983,82.8571261 73.6991313,82.0104259 L70.2432345,78.5545291 C69.3490254,77.6559959 67.9580297,77.4875251 66.8693946,78.1354975 C64.1003642,79.7943279 61.0979917,81.0384508 57.9661198,81.8203128 C56.7349359,82.1313435 55.871017,83.2371752 55.871017,84.5029734 L55.871017,89.397408 C55.871017,90.5939776 54.9984058,91.4666331 53.8017919,91.4666331 L46.194506,91.4666331 C44.9979363,91.4666331 44.1252809,90.5940219 44.1252809,89.397408 L44.1252809,84.5029734 L44.120968,84.5029734 C44.120968,83.2372858 43.2569938,82.1313988 42.0258651,81.8203128 C38.8939932,81.0384176 35.8916207,79.7943279 33.1225904,78.1354975 C32.0339773,77.4875141 30.6429706,77.6559959 29.7487504,78.5545291 L26.2928536,82.0104259 C25.4461645,82.8571261 24.2063767,82.8571261 23.3597097,82.0104259 L17.9857625,76.6364788 C17.1390623,75.7897785 17.1390623,74.5500018 17.9857625,73.7033348 L21.4416593,70.247438 C22.3401925,69.3532289 22.5086633,67.9622332 21.8606909,66.8735981 C20.2018605,64.1045677 18.9577377,61.1021952 18.1758756,57.9703233 C17.8648449,56.7391393 16.7590132,55.8752204 15.493215,55.8752204 L10.5987805,55.8752204 C9.40221076,55.8752204 8.52955536,55.0026093 8.52955536,53.8059953 L8.52955536,46.1987095 C8.52955536,45.0021398 9.40216653,44.1294844 10.5987805,44.1294844 L15.493215,44.1294844 L15.493215,44.1251604 C16.7589026,44.1251604 17.8647896,43.2611862 18.1758756,42.0300575 C18.9577708,38.8981857 20.2018605,35.8958131 21.8606909,33.1267828 C22.5086743,32.0381698 22.3401925,30.647163 21.4416593,29.7529428 L17.9857625,26.2970461 C17.1390623,25.4503569 17.1390623,24.2105691 17.9857625,23.3639021 L23.3597097,17.989955 C24.2064099,17.1432547 25.4461866,17.1432547 26.2928536,17.989955 L29.7487504,21.4458517 C30.6429595,22.3443849 32.0339552,22.5128557 33.1225904,21.8648834 C35.8916207,20.2060529 38.8939932,18.9619301 42.0258651,18.180068 C43.2570491,17.8690373 44.120968,16.7632056 44.120968,15.4974074 L44.120968,10.6029729 C44.120968,9.40640318 44.9935791,8.53374778 46.1901931,8.53374778 L46.194506,8.52943482 Z M49.9959925,26.3397444 C36.9631146,26.3397444 26.3355409,36.9666545 26.3355409,50.0001959 C26.3355409,63.0337373 36.9624511,73.6606475 49.9959925,73.6606475 C63.0295339,73.6606475 73.656444,63.0337373 73.656444,50.0001959 C73.656444,36.9666545 63.0295339,26.3397444 49.9959925,26.3397444 Z M49.9959925,31.8691792 C60.0396579,31.8691792 68.1270092,39.9516646 68.1270092,50.0001959 C68.1270092,60.0438613 60.0445238,68.1312127 49.9959925,68.1312127 C39.9523271,68.1312127 31.8649757,60.0487272 31.8649757,50.0001959 C31.8649757,39.9565305 39.9474612,31.8691792 49.9959925,31.8691792 Z" id="Fill-1" fill="#FFFFFF"></path>
    </g>
</svg>